#
# DiskA.obj
#
# 120 vertexes
# 62 texture coordinate pairs
# 41 vertex normals
# 3 meshes
#  196 faces
#



# 1 material libraries
mtllib Disks.mtl



# 120 vertexes
v 0.707107 0 0.707107
v 0.809017 0 0.587785
v 0.891007 0 0.45399
v 0.951057 0 0.309017
v 0.987688 0 0.156434
v 1 0 0
v 0.987688 0 -0.156434
v 0.951057 0 -0.309017
v 0.891007 0 -0.45399
v 0.809017 0 -0.587785
v 0.707107 0 -0.707107
v 0.587785 0 -0.809017
v 0.45399 0 -0.891007
v 0.309017 0 -0.951057
v 0.156434 0 -0.987688
v 0 0 -1
v -0.156434 0 -0.987688
v -0.309017 0 -0.951057
v -0.45399 0 -0.891007
v -0.587785 0 -0.809017
v -0.707107 0 -0.707107
v -0.809017 0 -0.587785
v -0.891007 0 -0.45399
v -0.951057 0 -0.309017
v -0.987688 0 -0.156434
v -1 0 0
v -0.987688 0 0.156434
v -0.951057 0 0.309017
v -0.891007 0 0.45399
v -0.809017 0 0.587785
v -0.707107 0 0.707107
v -0.587785 0 0.809017
v -0.45399 0 0.891007
v -0.309017 0 0.951057
v -0.156434 0 0.987688
v 0 0 1
v 0.156434 0 0.987688
v 0.309017 0 0.951057
v 0.45399 0 0.891007
v 0.587785 0 0.809017
v 0.707107 -10 0.707107
v 0.809017 -10 0.587785
v 0.891007 -10 0.45399
v 0.951057 -10 0.309017
v 0.987688 -10 0.156434
v 1 -10 0
v 0.987688 -10 -0.156434
v 0.951057 -10 -0.309017
v 0.891007 -10 -0.45399
v 0.809017 -10 -0.587785
v 0.707107 -10 -0.707107
v 0.587785 -10 -0.809017
v 0.45399 -10 -0.891007
v 0.309017 -10 -0.951057
v 0.156434 -10 -0.987688
v 0 -10 -1
v -0.156434 -10 -0.987688
v -0.309017 -10 -0.951057
v -0.45399 -10 -0.891007
v -0.587785 -10 -0.809017
v -0.707107 -10 -0.707107
v -0.809017 -10 -0.587785
v -0.891007 -10 -0.45399
v -0.951057 -10 -0.309017
v -0.987688 -10 -0.156434
v -1 -10 0
v -0.987688 -10 0.156434
v -0.951057 -10 0.309017
v -0.891007 -10 0.45399
v -0.809017 -10 0.587785
v -0.707107 -10 0.707107
v -0.587785 -10 0.809017
v -0.45399 -10 0.891007
v -0.309017 -10 0.951057
v -0.156434 -10 0.987688
v 0 -10 1
v 0.156434 -10 0.987688
v 0.309017 -10 0.951057
v 0.45399 -10 0.891007
v 0.587785 -10 0.809017
v 0.707107 -1000 0.707107
v 0.809017 -1000 0.587785
v 0.891007 -1000 0.45399
v 0.951057 -1000 0.309017
v 0.987688 -1000 0.156434
v 1 -1000 0
v 0.987688 -1000 -0.156434
v 0.951057 -1000 -0.309017
v 0.891007 -1000 -0.45399
v 0.809017 -1000 -0.587785
v 0.707107 -1000 -0.707107
v 0.587785 -1000 -0.809017
v 0.45399 -1000 -0.891007
v 0.309017 -1000 -0.951057
v 0.156434 -1000 -0.987688
v 0 -1000 -1
v -0.156434 -1000 -0.987688
v -0.309017 -1000 -0.951057
v -0.45399 -1000 -0.891007
v -0.587785 -1000 -0.809017
v -0.707107 -1000 -0.707107
v -0.809017 -1000 -0.587785
v -0.891007 -1000 -0.45399
v -0.951057 -1000 -0.309017
v -0.987688 -1000 -0.156434
v -1 -1000 0
v -0.987688 -1000 0.156434
v -0.951057 -1000 0.309017
v -0.891007 -1000 0.45399
v -0.809017 -1000 0.587785
v -0.707107 -1000 0.707107
v -0.587785 -1000 0.809017
v -0.45399 -1000 0.891007
v -0.309017 -1000 0.951057
v -0.156434 -1000 0.987688
v 0 -1000 1
v 0.156434 -1000 0.987688
v 0.309017 -1000 0.951057
v 0.45399 -1000 0.891007
v 0.587785 -1000 0.809017



# 62 texture coordinate pairs
vt 0 1
vt 0.1 1
vt 0.2 1
vt 0.3 1
vt 0.4 1
vt 0.5 1
vt 0.6 1
vt 0.7 1
vt 0.8 1
vt 0.9 1
vt 1 1
vt 0 0.1
vt 0.1 0.1
vt 0.2 0.1
vt 0.3 0.1
vt 0.4 0.1
vt 0.5 0.1
vt 0.6 0.1
vt 0.7 0.1
vt 0.8 0.1
vt 0.9 0.1
vt 1 0.1
vt 1 0
vt 1.07206 0.0843731
vt 1.13004 0.17898
vt 1.1725 0.281492
vt 1.1984 0.389384
vt 1.20711 0.5
vt 1.1984 0.610616
vt 1.1725 0.718508
vt 1.13004 0.82102
vt 1.07206 0.915627
vt 1 1
vt 0.915627 1.07206
vt 0.82102 1.13004
vt 0.718508 1.1725
vt 0.610616 1.1984
vt 0.5 1.20711
vt 0.389384 1.1984
vt 0.281492 1.1725
vt 0.17898 1.13004
vt 0.0843731 1.07206
vt 0 1
vt -0.0720614 0.915627
vt -0.130037 0.82102
vt -0.172499 0.718508
vt -0.198401 0.610616
vt -0.207107 0.5
vt -0.198401 0.389384
vt -0.172499 0.281492
vt -0.130037 0.17898
vt -0.0720614 0.0843731
vt 0 0
vt 0.0843731 -0.0720614
vt 0.17898 -0.130037
vt 0.281492 -0.172499
vt 0.389384 -0.198401
vt 0.5 -0.207107
vt 0.610616 -0.198401
vt 0.718508 -0.172499
vt 0.82102 -0.130037
vt 0.915627 -0.0720614



# 41 vertex normals
vn 0.707107 0 0.707107
vn 0.809017 0 0.587785
vn 0.891007 0 0.45399
vn 0.951057 0 0.309017
vn 0.987688 0 0.156434
vn 1 0 0
vn 0.987688 0 -0.156434
vn 0.951057 0 -0.309017
vn 0.891007 0 -0.45399
vn 0.809017 0 -0.587785
vn 0.707107 0 -0.707107
vn 0.587785 0 -0.809017
vn 0.45399 0 -0.891007
vn 0.309017 0 -0.951057
vn 0.156434 0 -0.987688
vn 0 0 -1
vn -0.156434 0 -0.987688
vn -0.309017 0 -0.951057
vn -0.45399 0 -0.891007
vn -0.587785 0 -0.809017
vn -0.707107 0 -0.707107
vn -0.809017 0 -0.587785
vn -0.891007 0 -0.45399
vn -0.951057 0 -0.309017
vn -0.987688 0 -0.156434
vn -1 0 0
vn -0.987688 0 0.156434
vn -0.951057 0 0.309017
vn -0.891007 0 0.45399
vn -0.809017 0 0.587785
vn -0.707107 0 0.707107
vn -0.587785 0 0.809017
vn -0.45399 0 0.891007
vn -0.309017 0 0.951057
vn -0.156434 0 0.987688
vn 0 0 1
vn 0.156434 0 0.987688
vn 0.309017 0 0.951057
vn 0.45399 0 0.891007
vn 0.587785 0 0.809017
vn 0 1 0



# 3 meshes

usemtl diskA_side
# 80 faces
f 1/1/1 41/12/1 2/2/2
f 42/13/2 2/2/2 41/12/1
f 2/2/2 42/13/2 3/3/3
f 43/14/3 3/3/3 42/13/2
f 3/3/3 43/14/3 4/4/4
f 44/15/4 4/4/4 43/14/3
f 4/4/4 44/15/4 5/5/5
f 45/16/5 5/5/5 44/15/4
f 5/5/5 45/16/5 6/6/6
f 46/17/6 6/6/6 45/16/5
f 6/6/6 46/17/6 7/7/7
f 47/18/7 7/7/7 46/17/6
f 7/7/7 47/18/7 8/8/8
f 48/19/8 8/8/8 47/18/7
f 8/8/8 48/19/8 9/9/9
f 49/20/9 9/9/9 48/19/8
f 9/9/9 49/20/9 10/10/10
f 50/21/10 10/10/10 49/20/9
f 10/10/10 50/21/10 11/11/11
f 51/22/11 11/11/11 50/21/10
f 11/1/11 51/12/11 12/2/12
f 52/13/12 12/2/12 51/12/11
f 12/2/12 52/13/12 13/3/13
f 53/14/13 13/3/13 52/13/12
f 13/3/13 53/14/13 14/4/14
f 54/15/14 14/4/14 53/14/13
f 14/4/14 54/15/14 15/5/15
f 55/16/15 15/5/15 54/15/14
f 15/5/15 55/16/15 16/6/16
f 56/17/16 16/6/16 55/16/15
f 16/6/16 56/17/16 17/7/17
f 57/18/17 17/7/17 56/17/16
f 17/7/17 57/18/17 18/8/18
f 58/19/18 18/8/18 57/18/17
f 18/8/18 58/19/18 19/9/19
f 59/20/19 19/9/19 58/19/18
f 19/9/19 59/20/19 20/10/20
f 60/21/20 20/10/20 59/20/19
f 20/10/20 60/21/20 21/11/21
f 61/22/21 21/11/21 60/21/20
f 21/1/21 61/12/21 22/2/22
f 62/13/22 22/2/22 61/12/21
f 22/2/22 62/13/22 23/3/23
f 63/14/23 23/3/23 62/13/22
f 23/3/23 63/14/23 24/4/24
f 64/15/24 24/4/24 63/14/23
f 24/4/24 64/15/24 25/5/25
f 65/16/25 25/5/25 64/15/24
f 25/5/25 65/16/25 26/6/26
f 66/17/26 26/6/26 65/16/25
f 26/6/26 66/17/26 27/7/27
f 67/18/27 27/7/27 66/17/26
f 27/7/27 67/18/27 28/8/28
f 68/19/28 28/8/28 67/18/27
f 28/8/28 68/19/28 29/9/29
f 69/20/29 29/9/29 68/19/28
f 29/9/29 69/20/29 30/10/30
f 70/21/30 30/10/30 69/20/29
f 30/10/30 70/21/30 31/11/31
f 71/22/31 31/11/31 70/21/30
f 31/1/31 71/12/31 32/2/32
f 72/13/32 32/2/32 71/12/31
f 32/2/32 72/13/32 33/3/33
f 73/14/33 33/3/33 72/13/32
f 33/3/33 73/14/33 34/4/34
f 74/15/34 34/4/34 73/14/33
f 34/4/34 74/15/34 35/5/35
f 75/16/35 35/5/35 74/15/34
f 35/5/35 75/16/35 36/6/36
f 76/17/36 36/6/36 75/16/35
f 36/6/36 76/17/36 37/7/37
f 77/18/37 37/7/37 76/17/36
f 37/7/37 77/18/37 38/8/38
f 78/19/38 38/8/38 77/18/37
f 38/8/38 78/19/38 39/9/39
f 79/20/39 39/9/39 78/19/38
f 39/9/39 79/20/39 40/10/40
f 80/21/40 40/10/40 79/20/39
f 40/10/40 80/21/40 1/11/1
f 41/22/1 1/11/1 80/21/40

usemtl flat_black
# 80 faces
f 41//1 81//1 42//2
f 82//2 42//2 81//1
f 42//2 82//2 43//3
f 83//3 43//3 82//2
f 43//3 83//3 44//4
f 84//4 44//4 83//3
f 44//4 84//4 45//5
f 85//5 45//5 84//4
f 45//5 85//5 46//6
f 86//6 46//6 85//5
f 46//6 86//6 47//7
f 87//7 47//7 86//6
f 47//7 87//7 48//8
f 88//8 48//8 87//7
f 48//8 88//8 49//9
f 89//9 49//9 88//8
f 49//9 89//9 50//10
f 90//10 50//10 89//9
f 50//10 90//10 51//11
f 91//11 51//11 90//10
f 51//11 91//11 52//12
f 92//12 52//12 91//11
f 52//12 92//12 53//13
f 93//13 53//13 92//12
f 53//13 93//13 54//14
f 94//14 54//14 93//13
f 54//14 94//14 55//15
f 95//15 55//15 94//14
f 55//15 95//15 56//16
f 96//16 56//16 95//15
f 56//16 96//16 57//17
f 97//17 57//17 96//16
f 57//17 97//17 58//18
f 98//18 58//18 97//17
f 58//18 98//18 59//19
f 99//19 59//19 98//18
f 59//19 99//19 60//20
f 100//20 60//20 99//19
f 60//20 100//20 61//21
f 101//21 61//21 100//20
f 61//21 101//21 62//22
f 102//22 62//22 101//21
f 62//22 102//22 63//23
f 103//23 63//23 102//22
f 63//23 103//23 64//24
f 104//24 64//24 103//23
f 64//24 104//24 65//25
f 105//25 65//25 104//24
f 65//25 105//25 66//26
f 106//26 66//26 105//25
f 66//26 106//26 67//27
f 107//27 67//27 106//26
f 67//27 107//27 68//28
f 108//28 68//28 107//27
f 68//28 108//28 69//29
f 109//29 69//29 108//28
f 69//29 109//29 70//30
f 110//30 70//30 109//29
f 70//30 110//30 71//31
f 111//31 71//31 110//30
f 71//31 111//31 72//32
f 112//32 72//32 111//31
f 72//32 112//32 73//33
f 113//33 73//33 112//32
f 73//33 113//33 74//34
f 114//34 74//34 113//33
f 74//34 114//34 75//35
f 115//35 75//35 114//34
f 75//35 115//35 76//36
f 116//36 76//36 115//35
f 76//36 116//36 77//37
f 117//37 77//37 116//36
f 77//37 117//37 78//38
f 118//38 78//38 117//37
f 78//38 118//38 79//39
f 119//39 79//39 118//38
f 79//39 119//39 80//40
f 120//40 80//40 119//39
f 80//40 120//40 41//1
f 81//1 41//1 120//40

usemtl diskA
# 36 faces
f 1/23/41 2/24/41 3/25/41
f 1/23/41 3/25/41 4/26/41
f 1/23/41 4/26/41 5/27/41
f 1/23/41 5/27/41 6/28/41
f 1/23/41 6/28/41 7/29/41
f 1/23/41 7/29/41 8/30/41
f 1/23/41 8/30/41 9/31/41
f 1/23/41 9/31/41 10/32/41
f 1/23/41 10/32/41 11/33/41
f 11/33/41 12/34/41 13/35/41
f 11/33/41 13/35/41 14/36/41
f 11/33/41 14/36/41 15/37/41
f 11/33/41 15/37/41 16/38/41
f 11/33/41 16/38/41 17/39/41
f 11/33/41 17/39/41 18/40/41
f 11/33/41 18/40/41 19/41/41
f 11/33/41 19/41/41 20/42/41
f 11/33/41 20/42/41 21/43/41
f 21/43/41 22/44/41 23/45/41
f 21/43/41 23/45/41 24/46/41
f 21/43/41 24/46/41 25/47/41
f 21/43/41 25/47/41 26/48/41
f 21/43/41 26/48/41 27/49/41
f 21/43/41 27/49/41 28/50/41
f 21/43/41 28/50/41 29/51/41
f 21/43/41 29/51/41 30/52/41
f 21/43/41 30/52/41 31/53/41
f 31/53/41 32/54/41 33/55/41
f 31/53/41 33/55/41 34/56/41
f 31/53/41 34/56/41 35/57/41
f 31/53/41 35/57/41 36/58/41
f 31/53/41 36/58/41 37/59/41
f 31/53/41 37/59/41 38/60/41
f 31/53/41 38/60/41 39/61/41
f 31/53/41 39/61/41 40/62/41
f 31/53/41 40/62/41 1/23/41




# End of DiskA.obj

