# This file uses centimeters as units for non-parametric coordinates.

mtllib Rod.mtl
v 0.000000 -1.000000 0.000000
v 0.000000 -1.000000 0.000000
v 0.000000 -1.000000 0.000000
v 0.000000 -1.000000 0.000000
v 0.000000 -1.000000 0.000000
v 0.000000 -1.000000 0.000000
v 0.000000 -1.000000 0.000000
v 0.000000 -1.000000 0.000000
v 0.000000 -1.000000 0.000000
v 0.000000 -1.000000 0.000000
v 0.000000 -1.000000 0.000000
v 0.000000 -1.000000 0.000000
v 0.000000 -1.000000 0.000000
v 0.000000 -1.000000 0.000000
v 0.000000 -1.000000 0.000000
v 0.000000 -1.000000 0.000000
v 0.000000 -1.000000 0.000000
v 0.000000 -1.000000 0.000000
v 0.000000 -1.000000 0.000000
v 0.000000 -1.000000 0.000000
v 0.000000 -1.000000 0.000000
v 0.000000 -1.000000 0.000000
v 0.000000 -1.000000 0.000000
v 0.000000 -1.000000 0.000000
v 0.091865 -1.000000 -0.024615
v 0.082364 -1.000000 -0.047553
v 0.067250 -1.000000 -0.067250
v 0.047553 -1.000000 -0.082364
v 0.024615 -1.000000 -0.091865
v 0.000000 -1.000000 -0.095106
v -0.024615 -1.000000 -0.091865
v -0.047553 -1.000000 -0.082364
v -0.067250 -1.000000 -0.067250
v -0.082364 -1.000000 -0.047553
v -0.091865 -1.000000 -0.024615
v -0.095106 -1.000000 -0.000000
v -0.091865 -1.000000 0.024615
v -0.082364 -1.000000 0.047553
v -0.067250 -1.000000 0.067250
v -0.047553 -1.000000 0.082364
v -0.024615 -1.000000 0.091865
v -0.000000 -1.000000 0.095106
v 0.024615 -1.000000 0.091865
v 0.047553 -1.000000 0.082364
v 0.067250 -1.000000 0.067250
v 0.082364 -1.000000 0.047553
v 0.091865 -1.000000 0.024615
v 0.095106 -1.000000 0.000000
v 0.091865 1.000000 -0.024615
v 0.082364 1.000000 -0.047553
v 0.067250 1.000000 -0.067250
v 0.047553 1.000000 -0.082364
v 0.024615 1.000000 -0.091865
v 0.000000 1.000000 -0.095106
v -0.024615 1.000000 -0.091865
v -0.047553 1.000000 -0.082364
v -0.067250 1.000000 -0.067250
v -0.082364 1.000000 -0.047553
v -0.091865 1.000000 -0.024615
v -0.095106 1.000000 -0.000000
v -0.091865 1.000000 0.024615
v -0.082364 1.000000 0.047553
v -0.067250 1.000000 0.067250
v -0.047553 1.000000 0.082364
v -0.024615 1.000000 0.091865
v -0.000000 1.000000 0.095106
v 0.024615 1.000000 0.091865
v 0.047553 1.000000 0.082364
v 0.067250 1.000000 0.067250
v 0.082364 1.000000 0.047553
v 0.091865 1.000000 0.024615
v 0.095106 1.000000 0.000000
v 0.000000 1.000000 0.000000
v 0.000000 1.000000 0.000000
v 0.000000 1.000000 0.000000
v 0.000000 1.000000 0.000000
v 0.000000 1.000000 0.000000
v 0.000000 1.000000 0.000000
v 0.000000 1.000000 0.000000
v 0.000000 1.000000 0.000000
v 0.000000 1.000000 0.000000
v 0.000000 1.000000 0.000000
v 0.000000 1.000000 0.000000
v 0.000000 1.000000 0.000000
v 0.000000 1.000000 0.000000
v 0.000000 1.000000 0.000000
v 0.000000 1.000000 0.000000
v 0.000000 1.000000 0.000000
v 0.000000 1.000000 0.000000
v 0.000000 1.000000 0.000000
v 0.000000 1.000000 0.000000
v 0.000000 1.000000 0.000000
v 0.000000 1.000000 0.000000
v 0.000000 1.000000 0.000000
v 0.000000 1.000000 0.000000
v 0.000000 1.000000 0.000000
vt 0.000000 0.000000
vt 0.041667 0.000000
vt 0.083333 0.000000
vt 0.125000 0.000000
vt 0.166667 0.000000
vt 0.208333 0.000000
vt 0.250000 0.000000
vt 0.291667 0.000000
vt 0.333333 0.000000
vt 0.375000 0.000000
vt 0.416667 0.000000
vt 0.458333 0.000000
vt 0.500000 0.000000
vt 0.541667 0.000000
vt 0.583333 0.000000
vt 0.625000 0.000000
vt 0.666667 0.000000
vt 0.708333 0.000000
vt 0.750000 0.000000
vt 0.791667 0.000000
vt 0.833333 0.000000
vt 0.875000 0.000000
vt 0.916667 0.000000
vt 0.958333 0.000000
vt 1.000000 0.000000
vt 0.000000 0.100000
vt 0.041667 0.100000
vt 0.083333 0.100000
vt 0.125000 0.100000
vt 0.166667 0.100000
vt 0.208333 0.100000
vt 0.250000 0.100000
vt 0.291667 0.100000
vt 0.333333 0.100000
vt 0.375000 0.100000
vt 0.416667 0.100000
vt 0.458333 0.100000
vt 0.500000 0.100000
vt 0.541667 0.100000
vt 0.583333 0.100000
vt 0.625000 0.100000
vt 0.666667 0.100000
vt 0.708333 0.100000
vt 0.750000 0.100000
vt 0.791667 0.100000
vt 0.833333 0.100000
vt 0.875000 0.100000
vt 0.916667 0.100000
vt 0.958333 0.100000
vt 1.000000 0.100000
vt 0.000000 0.900000
vt 0.041667 0.900000
vt 0.083333 0.900000
vt 0.125000 0.900000
vt 0.166667 0.900000
vt 0.208333 0.900000
vt 0.250000 0.900000
vt 0.291667 0.900000
vt 0.333333 0.900000
vt 0.375000 0.900000
vt 0.416667 0.900000
vt 0.458333 0.900000
vt 0.500000 0.900000
vt 0.541667 0.900000
vt 0.583333 0.900000
vt 0.625000 0.900000
vt 0.666667 0.900000
vt 0.708333 0.900000
vt 0.750000 0.900000
vt 0.791667 0.900000
vt 0.833333 0.900000
vt 0.875000 0.900000
vt 0.916667 0.900000
vt 0.958333 0.900000
vt 1.000000 0.900000
vt 0.000000 1.000000
vt 0.041667 1.000000
vt 0.083333 1.000000
vt 0.125000 1.000000
vt 0.166667 1.000000
vt 0.208333 1.000000
vt 0.250000 1.000000
vt 0.291667 1.000000
vt 0.333333 1.000000
vt 0.375000 1.000000
vt 0.416667 1.000000
vt 0.458333 1.000000
vt 0.500000 1.000000
vt 0.541667 1.000000
vt 0.583333 1.000000
vt 0.625000 1.000000
vt 0.666667 1.000000
vt 0.708333 1.000000
vt 0.750000 1.000000
vt 0.791667 1.000000
vt 0.833333 1.000000
vt 0.875000 1.000000
vt 0.916667 1.000000
vt 0.958333 1.000000
vt 1.000000 1.000000
vn 0.000000 -1.000000 0.000000
vn 0.000000 -1.000000 0.000000
vn 0.000000 -1.000000 0.000000
vn 0.000000 -1.000000 0.000000
vn 0.000000 -1.000000 0.000000
vn 0.000000 -1.000000 0.000000
vn 0.000000 -1.000000 0.000000
vn 0.000000 -1.000000 0.000000
vn 0.000000 -1.000000 0.000000
vn 0.000000 -1.000000 0.000000
vn 0.000000 -1.000000 0.000000
vn 0.000000 -1.000000 0.000000
vn 0.000000 -1.000000 0.000000
vn 0.000000 -1.000000 0.000000
vn 0.000000 -1.000000 0.000000
vn 0.000000 -1.000000 0.000000
vn 0.000000 -1.000000 0.000000
vn 0.000000 -1.000000 0.000000
vn 0.000000 -1.000000 0.000000
vn 0.000000 -1.000000 0.000000
vn 0.000000 -1.000000 0.000000
vn 0.000000 -1.000000 0.000000
vn 0.000000 -1.000000 0.000000
vn 0.000000 -1.000000 0.000000
vn 0.000000 -1.000000 0.000000
vn 0.000000 -1.000000 0.000000
vn 0.000000 -1.000000 0.000000
vn 0.000000 -1.000000 0.000000
vn 0.000000 -1.000000 0.000000
vn 0.000000 -1.000000 0.000000
vn 0.000000 -1.000000 0.000000
vn 0.000000 -1.000000 0.000000
vn 0.000000 -1.000000 0.000000
vn 0.000000 -1.000000 0.000000
vn 0.000000 -1.000000 -0.000000
vn 0.000000 -1.000000 -0.000000
vn 0.000000 -1.000000 -0.000000
vn 0.000000 -1.000000 -0.000000
vn 0.000000 -1.000000 0.000000
vn 0.000000 -1.000000 0.000000
vn 0.000000 -1.000000 0.000000
vn 0.000000 -1.000000 0.000000
vn 0.000000 -1.000000 0.000000
vn 0.000000 -1.000000 0.000000
vn 0.000000 -1.000000 0.000000
vn 0.000000 -1.000000 0.000000
vn 0.000000 -1.000000 0.000000
vn 0.000000 -1.000000 0.000000
vn 0.965926 0.000000 -0.258820
vn 0.866025 0.000000 -0.500000
vn 0.866025 0.000000 -0.500000
vn 0.965926 0.000000 -0.258820
vn 0.866025 0.000000 -0.500000
vn 0.707107 0.000000 -0.707107
vn 0.707107 0.000000 -0.707107
vn 0.866025 0.000000 -0.500000
vn 0.707107 0.000000 -0.707107
vn 0.500000 0.000000 -0.866025
vn 0.500000 0.000000 -0.866025
vn 0.707107 0.000000 -0.707107
vn 0.500000 0.000000 -0.866025
vn 0.258819 0.000000 -0.965926
vn 0.258819 0.000000 -0.965926
vn 0.500000 0.000000 -0.866025
vn 0.258819 0.000000 -0.965926
vn 0.000000 0.000000 -1.000000
vn 0.000000 0.000000 -1.000000
vn 0.258819 0.000000 -0.965926
vn 0.000000 0.000000 -1.000000
vn -0.258819 0.000000 -0.965926
vn -0.258819 0.000000 -0.965926
vn 0.000000 0.000000 -1.000000
vn -0.258819 0.000000 -0.965926
vn -0.500000 0.000000 -0.866026
vn -0.500000 0.000000 -0.866026
vn -0.258819 0.000000 -0.965926
vn -0.500000 0.000000 -0.866026
vn -0.707107 0.000000 -0.707107
vn -0.707107 0.000000 -0.707107
vn -0.500000 0.000000 -0.866026
vn -0.707107 0.000000 -0.707107
vn -0.866025 0.000000 -0.500000
vn -0.866025 0.000000 -0.500000
vn -0.707107 0.000000 -0.707107
vn -0.866025 0.000000 -0.500000
vn -0.965926 0.000000 -0.258819
vn -0.965926 0.000000 -0.258819
vn -0.866025 0.000000 -0.500000
vn -0.965926 0.000000 -0.258819
vn -1.000000 0.000000 -0.000000
vn -1.000000 0.000000 -0.000000
vn -0.965926 0.000000 -0.258819
vn -1.000000 0.000000 -0.000000
vn -0.965926 0.000000 0.258819
vn -0.965926 0.000000 0.258819
vn -1.000000 0.000000 -0.000000
vn -0.965926 0.000000 0.258819
vn -0.866025 0.000000 0.500000
vn -0.866025 0.000000 0.500000
vn -0.965926 0.000000 0.258819
vn -0.866025 0.000000 0.500000
vn -0.707107 0.000000 0.707107
vn -0.707107 0.000000 0.707107
vn -0.866025 0.000000 0.500000
vn -0.707107 0.000000 0.707107
vn -0.500000 0.000000 0.866025
vn -0.500000 0.000000 0.866025
vn -0.707107 0.000000 0.707107
vn -0.500000 0.000000 0.866025
vn -0.258819 0.000000 0.965926
vn -0.258819 0.000000 0.965926
vn -0.500000 0.000000 0.866025
vn -0.258819 0.000000 0.965926
vn -0.000000 0.000000 1.000000
vn -0.000000 0.000000 1.000000
vn -0.258819 0.000000 0.965926
vn -0.000000 0.000000 1.000000
vn 0.258819 0.000000 0.965926
vn 0.258819 0.000000 0.965926
vn -0.000000 0.000000 1.000000
vn 0.258819 0.000000 0.965926
vn 0.500000 0.000000 0.866026
vn 0.500000 0.000000 0.866026
vn 0.258819 0.000000 0.965926
vn 0.500000 0.000000 0.866026
vn 0.707107 0.000000 0.707107
vn 0.707107 0.000000 0.707107
vn 0.500000 0.000000 0.866026
vn 0.707107 0.000000 0.707107
vn 0.866025 0.000000 0.500000
vn 0.866025 0.000000 0.500000
vn 0.707107 0.000000 0.707107
vn 0.866025 0.000000 0.500000
vn 0.965926 0.000000 0.258819
vn 0.965926 0.000000 0.258819
vn 0.866025 0.000000 0.500000
vn 0.965926 0.000000 0.258819
vn 1.000000 0.000000 -0.000001
vn 1.000000 0.000000 -0.000001
vn 0.965926 0.000000 0.258819
vn 1.000000 0.000000 -0.000001
vn 0.965926 0.000000 -0.258820
vn 0.965926 0.000000 -0.258820
vn 1.000000 0.000000 -0.000001
vn 0.000000 1.000000 0.000000
vn 0.000000 1.000000 0.000000
vn 0.000000 1.000000 0.000000
vn 0.000000 1.000000 0.000000
vn 0.000000 1.000000 0.000000
vn 0.000000 1.000000 0.000000
vn 0.000000 1.000000 0.000000
vn 0.000000 1.000000 0.000000
vn 0.000000 1.000000 0.000000
vn 0.000000 1.000000 0.000000
vn 0.000000 1.000000 0.000000
vn 0.000000 1.000000 0.000000
vn 0.000000 1.000000 0.000000
vn 0.000000 1.000000 0.000000
vn 0.000000 1.000000 0.000000
vn 0.000000 1.000000 0.000000
vn 0.000000 1.000000 0.000000
vn 0.000000 1.000000 0.000000
vn 0.000000 1.000000 0.000000
vn 0.000000 1.000000 0.000000
vn 0.000000 1.000000 0.000000
vn 0.000000 1.000000 0.000000
vn 0.000000 1.000000 0.000000
vn 0.000000 1.000000 0.000000
vn 0.000000 1.000000 0.000000
vn 0.000000 1.000000 0.000000
vn 0.000000 1.000000 0.000000
vn 0.000000 1.000000 0.000000
vn 0.000000 1.000000 0.000000
vn 0.000000 1.000000 0.000000
vn 0.000000 1.000000 0.000000
vn 0.000000 1.000000 0.000000
vn 0.000000 1.000000 0.000000
vn 0.000000 1.000000 0.000000
vn 0.000000 1.000000 -0.000000
vn 0.000000 1.000000 -0.000000
vn 0.000000 1.000000 -0.000000
vn 0.000000 1.000000 -0.000000
vn 0.000000 1.000000 0.000000
vn 0.000000 1.000000 0.000000
vn 0.000000 1.000000 0.000000
vn 0.000000 1.000000 0.000000
vn 0.000000 1.000000 0.000000
vn 0.000000 1.000000 0.000000
vn 0.000000 1.000000 0.000000
vn 0.000000 1.000000 0.000000
vn 0.000000 1.000000 0.000000
vn 0.000000 1.000000 0.000000
usemtl rod
f 1/1/1 2/2/2 26/27/3 25/26/4
f 2/2/2 3/3/5 27/28/6 26/27/3
f 3/3/5 4/4/7 28/29/8 27/28/6
f 4/4/7 5/5/9 29/30/10 28/29/8
f 5/5/9 6/6/11 30/31/12 29/30/10
f 6/6/11 7/7/13 31/32/14 30/31/12
f 7/7/13 8/8/15 32/33/16 31/32/14
f 8/8/15 9/9/17 33/34/18 32/33/16
f 9/9/17 10/10/19 34/35/20 33/34/18
f 10/10/19 11/11/21 35/36/22 34/35/20
f 11/11/21 12/12/23 36/37/24 35/36/22
f 12/12/23 13/13/25 37/38/26 36/37/24
f 13/13/25 14/14/27 38/39/28 37/38/26
f 14/14/27 15/15/29 39/40/30 38/39/28
f 15/15/29 16/16/31 40/41/32 39/40/30
f 16/16/31 17/17/33 41/42/34 40/41/32
f 17/17/33 18/18/35 42/43/36 41/42/34
f 18/18/35 19/19/37 43/44/38 42/43/36
f 19/19/37 20/20/39 44/45/40 43/44/38
f 20/20/39 21/21/41 45/46/42 44/45/40
f 21/21/41 22/22/43 46/47/44 45/46/42
f 22/22/43 23/23/45 47/48/46 46/47/44
f 23/23/45 24/24/47 48/49/48 47/48/46
f 24/24/47 1/25/1 25/50/4 48/49/48
f 25/26/49 26/27/50 50/52/51 49/51/52
f 26/27/53 27/28/54 51/53/55 50/52/56
f 27/28/57 28/29/58 52/54/59 51/53/60
f 28/29/61 29/30/62 53/55/63 52/54/64
f 29/30/65 30/31/66 54/56/67 53/55/68
f 30/31/69 31/32/70 55/57/71 54/56/72
f 31/32/73 32/33/74 56/58/75 55/57/76
f 32/33/77 33/34/78 57/59/79 56/58/80
f 33/34/81 34/35/82 58/60/83 57/59/84
f 34/35/85 35/36/86 59/61/87 58/60/88
f 35/36/89 36/37/90 60/62/91 59/61/92
f 36/37/93 37/38/94 61/63/95 60/62/96
f 37/38/97 38/39/98 62/64/99 61/63/100
f 38/39/101 39/40/102 63/65/103 62/64/104
f 39/40/105 40/41/106 64/66/107 63/65/108
f 40/41/109 41/42/110 65/67/111 64/66/112
f 41/42/113 42/43/114 66/68/115 65/67/116
f 42/43/117 43/44/118 67/69/119 66/68/120
f 43/44/121 44/45/122 68/70/123 67/69/124
f 44/45/125 45/46/126 69/71/127 68/70/128
f 45/46/129 46/47/130 70/72/131 69/71/132
f 46/47/133 47/48/134 71/73/135 70/72/136
f 47/48/137 48/49/138 72/74/139 71/73/140
f 48/49/141 25/50/142 49/75/143 72/74/144
f 49/51/145 50/52/146 74/77/147 73/76/148
f 50/52/146 51/53/149 75/78/150 74/77/147
f 51/53/149 52/54/151 76/79/152 75/78/150
f 52/54/151 53/55/153 77/80/154 76/79/152
f 53/55/153 54/56/155 78/81/156 77/80/154
f 54/56/155 55/57/157 79/82/158 78/81/156
f 55/57/157 56/58/159 80/83/160 79/82/158
f 56/58/159 57/59/161 81/84/162 80/83/160
f 57/59/161 58/60/163 82/85/164 81/84/162
f 58/60/163 59/61/165 83/86/166 82/85/164
f 59/61/165 60/62/167 84/87/168 83/86/166
f 60/62/167 61/63/169 85/88/170 84/87/168
f 61/63/169 62/64/171 86/89/172 85/88/170
f 62/64/171 63/65/173 87/90/174 86/89/172
f 63/65/173 64/66/175 88/91/176 87/90/174
f 64/66/175 65/67/177 89/92/178 88/91/176
f 65/67/177 66/68/179 90/93/180 89/92/178
f 66/68/179 67/69/181 91/94/182 90/93/180
f 67/69/181 68/70/183 92/95/184 91/94/182
f 68/70/183 69/71/185 93/96/186 92/95/184
f 69/71/185 70/72/187 94/97/188 93/96/186
f 70/72/187 71/73/189 95/98/190 94/97/188
f 71/73/189 72/74/191 96/99/192 95/98/190
f 72/74/191 49/75/145 73/100/148 96/99/192
